<svg fill="none" height="19" viewBox="0 0 19 19" width="19" xmlns="http://www.w3.org/2000/svg"><g fill="#ff5c16"><path d="m17.7557 17.5767-4.0926-1.2109-3.0864 1.8333-2.15337-.0009-3.08817-1.8324-4.0908 1.2109-1.24436-4.1739 1.24436-4.63226-1.24436-3.91651 1.24436-4.85403 6.39221 3.79454h3.72693l6.3922-3.79454 1.2443 4.85403-1.2443 3.91651 1.2443 4.63226z"/><path d="m1.24512 0 6.39221 3.79721-.25422 2.60597z"/><path d="m5.33594 13.4048 2.81254 2.1288-2.81254.8324z"/><path d="m7.92339 9.88509-.54056-3.4803-3.46014 2.36647-.00179-.00089v.00177l.01071 2.43586 1.40314-1.32291z"/><path d="m17.7555 0-6.3922 3.79721.2534 2.60597z"/><path d="m13.665 13.4048-2.8125 2.1288 2.8125.8324z"/><path d="m15.0787 8.77214v-.00177l-.0009.00089-3.4601-2.36647-.5406 3.4803h2.5877l1.4041 1.32291z"/><path d="m5.33516 16.366-4.0908 1.2108-1.24436-4.172h5.33516z"/><path d="m7.92237 9.88428.78141 5.03122-1.08291-2.7975-3.69118-.9099 1.40404-1.32382z"/><path d="m13.665 16.366 4.0908 1.2108 1.2444-4.172h-5.3352z"/><path d="m11.0774 9.88428-.7815 5.03122 1.083-2.7975 3.6911-.9099-1.4049-1.32382z"/></g><path d="m0 13.4028 1.24436-4.63229h2.67606l.00981 2.43689 3.69118.9098 1.08291 2.7974-.55662.6161-2.81254-2.1288z" fill="#ff8d5d"/><path d="m19.0003 13.4028-1.2444-4.63229h-2.6761l-.0098 2.43689-3.6911.9098-1.083 2.7974.5567.6161 2.8125-2.1288z" fill="#ff8d5d"/><path d="m11.3639 3.79492h-1.86335-1.86343l-.25333 2.60596 1.32108 8.51142h1.59133l1.322-8.51142z" fill="#ff8d5d"/><g fill="#661800"><path d="m1.24436 0-1.24436 4.85403 1.24436 3.91651h2.67606l3.46193-2.36736z"/><path d="m7.04498 10.6339h-1.47324l-.80221.7812 2.85.7022-.57455-1.4845z"/><path d="m17.7552 0 1.2444 4.85403-1.2444 3.91651h-2.6761l-3.4619-2.36736z"/><path d="m11.951 10.6339h1.4737l.8013.7814-2.85.7025.575-1.485z"/><path d="m10.5755 16.5387.2765-1.006-.5566-.6162h-1.5923l-.55662.6162.27653 1.006"/></g><path d="m10.5762 16.5386v1.6613h-2.15237v-1.6613z" fill="#e7ebf6"/><path d="m5.33594 16.3643 3.08907 1.8349v-1.6614l-.27653-1.0061z" fill="#e7ebf6"/><path d="m13.6643 16.3643-3.0891 1.8349v-1.6614l.2766-1.0061z" fill="#e7ebf6"/></svg>